<?xml version="1.0" encoding="utf-8"?>
<!-- Generator: Adobe Illustrator 22.0.0, SVG Export Plug-In . SVG Version: 6.00 Build 0)  -->
<svg version="1.1" id="Layer_1" xmlns="http://www.w3.org/2000/svg" xmlns:xlink="http://www.w3.org/1999/xlink" x="0px" y="0px"
	 viewBox="0 0 50 50" style="enable-background:new 0 0 50 50;" xml:space="preserve">
<style type="text/css">
	.st0{fill:none;stroke:#FFFFFF;stroke-width:1.5;stroke-linecap:round;stroke-linejoin:round;stroke-miterlimit:10;}
</style>
<g id="XMLID_574_">
	<path id="XMLID_590_" class="st0" d="M41.2,38.2L35,23.5c3.6-3.1,4.5-7.5,2.8-11.5c-2.2-5.2-8-7.7-13.1-5.5
		c-5.2,2.2-7.7,8.2-5.6,13.4c1.7,4,5.9,6.3,9.6,6.3l2.9,6.8l3,0.9l-1,2.9l2.7,0.7L35,39.8l5.3,4.4L41.2,38.2z"/>
	<circle id="XMLID_582_" class="st0" cx="28.8" cy="15.8" r="3.3"/>
	<path id="XMLID_581_" class="st0" d="M21.2,5.3C15.7,4,10.2,7.5,9,12.9c-1,4.2,0.8,8.5,4.2,10.7l-1.7,7.2l1.6,2.4l-2.6,1.7l1.7,2.2
		l-2.5,1.1l2.2,6.7l4.7-4.1l3.6-15.6"/>
</g>
</svg>
