<?xml version="1.0" encoding="utf-8"?>
<!-- Generator: Adobe Illustrator 22.0.0, SVG Export Plug-In . SVG Version: 6.00 Build 0)  -->
<svg version="1.1" id="Layer_1" xmlns="http://www.w3.org/2000/svg" xmlns:xlink="http://www.w3.org/1999/xlink" x="0px" y="0px"
	 viewBox="0 0 50 50" style="enable-background:new 0 0 50 50;" xml:space="preserve">
<style>
	g { fill: white; }
</style>
<g id="XMLID_473_" transform="translate(0,-952.36218)">
	<path id="XMLID_474_" d="M12.3,960.7c-0.7,0-1.2,0.5-1.2,1.2l0,0v17.2c-1.8,0.5-3.2,2.2-3.2,4.2s1.3,3.7,3.2,4.2v5.3
		c0,0.7,0.5,1.2,1.2,1.2s1.2-0.5,1.2-1.2l0,0v-5.3c1.8-0.5,3.2-2.2,3.2-4.2s-1.3-3.7-3.2-4.2v-17.2C13.5,961.3,13,960.8,12.3,960.7
		C12.4,960.7,12.3,960.7,12.3,960.7z M25,960.7c-0.7,0-1.2,0.5-1.2,1.2l0,0v5.3c-1.8,0.5-3.2,2.2-3.2,4.2s1.3,3.7,3.2,4.2v17.2
		c0,0.7,0.5,1.2,1.2,1.2s1.2-0.5,1.2-1.2l0,0v-17.2c1.8-0.5,3.2-2.2,3.2-4.2s-1.3-3.7-3.2-4.2v-5.3C26.2,961.3,25.7,960.8,25,960.7
		L25,960.7z M37.6,960.7c-0.7,0-1.2,0.5-1.2,1.2l0,0v17.2c-1.8,0.5-3.2,2.2-3.2,4.2s1.3,3.7,3.2,4.2v5.3c0,0.7,0.5,1.2,1.2,1.2
		s1.2-0.5,1.2-1.2l0,0v-5.3c1.8-0.5,3.2-2.2,3.2-4.2s-1.3-3.7-3.2-4.2v-17.2C38.9,961.3,38.3,960.8,37.6,960.7
		C37.7,960.7,37.7,960.7,37.6,960.7z M25,969.5c1.1,0,2,0.9,2,2s-0.9,2-2,2s-2-0.9-2-2S23.9,969.5,25,969.5z M12.3,981.3
		c1.1,0,2,0.9,2,2s-0.9,2-2,2s-2-0.9-2-2C10.4,982.2,11.2,981.3,12.3,981.3z M37.7,981.3c1.1,0,2,0.9,2,2s-0.9,2-2,2s-2-0.9-2-2
		S36.5,981.3,37.7,981.3z"/>
</g>
</svg>
