<?xml version="1.0" encoding="utf-8"?>
<!-- Generator: Adobe Illustrator 22.0.0, SVG Export Plug-In . SVG Version: 6.00 Build 0)  -->
<svg version="1.1" id="Layer_1" xmlns="http://www.w3.org/2000/svg" xmlns:xlink="http://www.w3.org/1999/xlink" x="0px" y="0px"
	 viewBox="0 0 50 50" style="enable-background:new 0 0 50 50;" xml:space="preserve">
 <style>
 	g { fill: white; }
 </style>
<g id="XMLID_505_" class="st0">
	<path id="XMLID_506_" d="M25,5.8C14.4,5.8,5.8,14.4,5.8,25S14.4,44.2,25,44.2S44.2,35.6,44.2,25S35.6,5.8,25,5.8z M27.4,8.4
		L27.4,8.4c0.2,0.2,4.2,2.6,6.8,7.6h-4.4c-0.8-3.3-1.8-6-2.6-7.6C27.3,8.4,27.3,8.4,27.4,8.4z M30.9,23.8c-0.1-1.9-0.3-3.8-0.6-5.5
		h4.9c0.6,1.6,1,3.4,1.1,5.5H30.9z M36.3,26.2c-0.1,2-0.5,3.8-1.1,5.5h-4.8c0.3-1.9,0.5-3.7,0.5-5.5H36.3z M28.6,26.2
		c0,1.8-0.2,3.6-0.5,5.5H22c-0.3-1.9-0.5-3.7-0.5-5.5H28.6z M21.5,23.8c0.1-1.9,0.3-3.8,0.7-5.5h5.7c0.3,1.7,0.6,3.5,0.7,5.5H21.5z
		 M27.3,15.9h-4.6c0.8-2.9,1.7-5.2,2.3-6.7C25.6,10.7,26.6,13,27.3,15.9z M22.6,8.4L22.6,8.4C22,10,20.9,12.7,20.1,16h-4.4
		C18.4,11,22.4,8.6,22.6,8.4L22.6,8.4z M19.1,23.8h-5.4c0.1-2,0.5-3.8,1.1-5.5h4.9C19.4,20,19.2,21.9,19.1,23.8z M19.5,31.7h-4.8
		c-0.6-1.6-1-3.4-1.1-5.5H19C19.1,28,19.2,29.8,19.5,31.7z M16.8,10.4c-1.3,1.4-2.6,3.3-3.6,5.6h-2.3C12.3,13.6,14.4,11.7,16.8,10.4
		z M9.6,18.3h2.7c-0.5,1.6-0.8,3.5-0.9,5.5h-3C8.4,21.9,8.8,20,9.6,18.3z M8.3,26.2h3c0.1,2,0.4,3.8,1,5.5H9.6
		C8.8,30,8.4,28.1,8.3,26.2z M10.9,34.1h2.3c1,2.3,2.4,4.2,3.7,5.6C14.4,38.3,12.4,36.4,10.9,34.1z M22.7,41.6L22.7,41.6
		c-0.2-0.2-4.2-2.6-6.9-7.6H20C20.6,36.5,21.5,39,22.7,41.6L22.7,41.6z M22.5,34.1h5c-0.6,2.2-1.4,4.4-2.5,6.6
		C23.9,38.4,23.1,36.2,22.5,34.1z M27.3,41.6c-0.1,0-0.1,0-0.2,0c1.3-2.6,2.2-5.1,2.8-7.6h4.2C31.6,39,27.6,41.4,27.3,41.6
		L27.3,41.6z M33.2,39.7c1.3-1.5,2.6-3.3,3.7-5.6h2.3C37.6,36.4,35.6,38.3,33.2,39.7z M40.4,31.7h-2.7c0.5-1.6,0.8-3.5,1-5.5h3
		C41.6,28.1,41.2,30,40.4,31.7z M41.7,23.8h-3c-0.1-2-0.4-3.8-0.9-5.5h2.7C41.2,20,41.6,21.9,41.7,23.8z M36.8,15.9
		c-1-2.3-2.3-4.1-3.6-5.6c2.4,1.4,4.4,3.3,5.9,5.6H36.8z"/>
</g>
</svg>
