<?xml version="1.0" encoding="utf-8"?>
<!-- Generator: Adobe Illustrator 22.0.0, SVG Export Plug-In . SVG Version: 6.00 Build 0)  -->
<svg version="1.1" id="Layer_1" xmlns="http://www.w3.org/2000/svg" xmlns:xlink="http://www.w3.org/1999/xlink" x="0px" y="0px"
	 viewBox="0 0 50 50" style="enable-background:new 0 0 50 50;" xml:space="preserve">
<style>
	g { fill: white; }
</style>
<g>
	<path class="st0" d="M16.7,24.5c0,4.6,3.7,8.3,8.3,8.3s8.3-3.8,8.3-8.3c0-4.6-3.7-8.3-8.3-8.3S16.7,19.9,16.7,24.5z M30.3,24.4
		c0,2.9-2.4,5.3-5.3,5.3s-5.3-2.4-5.3-5.3c0-2.9,2.4-5.3,5.3-5.3C28,19.1,30.3,21.5,30.3,24.4z"/>
	<circle class="st0" cx="25" cy="24.5" r="1.9"/>
	<path class="st0" d="M48.1,24.5c0-0.4-2.5-2.6-3.3-3.3c-3.6-3.3-11.3-9-19.8-9.1c0,0,0,0-0.1,0C16.6,12.1,9,17.7,5.2,21l0,0
		c0,0-3.5,3-3.5,3.5S5.2,28,5.2,28l0,0c3.7,3.3,11.2,8.8,19.6,8.9c0.1,0,0.1,0,0.2,0c10.2,0,19.3-8.4,21.6-10.7
		C47.4,25.4,48.1,24.7,48.1,24.5z M25,33.8c-8.4-0.1-16.2-6.7-18.9-9.3c2.7-2.6,10.6-9.3,18.9-9.3h0.1c8.3,0.1,16.1,6.7,18.8,9.3
		C41.2,27.1,33.3,33.8,25,33.8z"/>
</g>
</svg>
